<?xml version="1.0" standalone="no"?>
<!DOCTYPE svg PUBLIC "-//W3C//DTD SVG 20010904//EN"
 "http://www.w3.org/TR/2001/REC-SVG-20010904/DTD/svg10.dtd">
<svg version="1.0" xmlns="http://www.w3.org/2000/svg"
 width="980.000000pt" height="980.000000pt" viewBox="0 0 980.000000 980.000000"
 preserveAspectRatio="xMidYMid meet">
<metadata>
Created by potrace 1.11, written by Peter Selinger 2001-2013
</metadata>
<g transform="translate(0.000000,980.000000) scale(0.100000,-0.100000)"
fill="#000000" stroke="none">
<path d="M5190 9187 c-36 -11 -74 -23 -85 -28 -11 -5 -41 -13 -67 -19 -26 -5
-63 -19 -82 -30 -20 -10 -38 -15 -41 -10 -3 4 0 10 6 12 5 2 7 11 4 20 -6 14
-16 17 -51 13 -24 -2 -44 -1 -44 3 0 4 -14 8 -31 9 -41 3 -90 -22 -83 -42 4
-8 1 -15 -6 -15 -6 0 -8 5 -5 10 12 19 -12 10 -51 -20 -36 -27 -72 -40 -60
-22 2 4 -11 8 -29 8 -21 0 -30 -3 -22 -8 8 -5 7 -8 -5 -8 -10 0 -18 5 -18 10
0 7 -6 8 -16 2 -9 -5 -25 -7 -35 -5 -11 3 -19 0 -19 -6 0 -6 -7 -11 -15 -11
-8 0 -24 -9 -35 -20 -11 -11 -25 -20 -30 -20 -6 0 -18 -4 -28 -9 -36 -18 -180
-73 -241 -93 -71 -22 -114 -46 -106 -58 3 -5 0 -12 -6 -16 -8 -4 -9 -3 -5 4
11 18 -19 15 -34 -3 -7 -8 -18 -15 -24 -15 -6 0 -26 -13 -43 -29 -18 -16 -34
-26 -37 -23 -3 3 -6 0 -6 -6 0 -7 -9 -12 -20 -12 -11 0 -28 -9 -37 -20 -10
-11 -23 -20 -30 -20 -16 0 -64 -45 -57 -53 3 -3 -3 -3 -14 0 -14 3 -30 -4 -47
-21 -15 -15 -32 -25 -38 -23 -7 2 8 18 32 35 50 36 46 43 -6 11 -18 -12 -40
-19 -47 -16 -9 4 -23 -14 -42 -51 -26 -51 -29 -54 -34 -31 -6 22 -7 21 -19
-16 -8 -22 -16 -44 -19 -49 -3 -5 -6 -23 -7 -40 -2 -17 -6 -50 -10 -73 -6 -31
-4 -48 6 -60 9 -11 10 -14 2 -9 -10 5 -13 -4 -13 -36 0 -28 -3 -38 -9 -29 -7
11 -13 8 -27 -14 -21 -32 -25 -46 -26 -95 0 -31 -1 -32 -7 -10 -6 23 -7 24
-14 5 -6 -15 -10 -17 -16 -6 -7 11 -11 9 -20 -8 -7 -12 -10 -25 -7 -30 3 -4
-1 -8 -9 -8 -11 0 -9 9 6 39 11 21 24 36 28 33 5 -2 14 2 21 10 11 13 10 14
-5 9 -14 -6 -16 -3 -10 14 3 12 3 22 -2 22 -12 0 -55 -30 -70 -47 -6 -8 -23
-16 -36 -17 -14 0 -23 -4 -21 -8 7 -11 -8 -38 -17 -32 -12 7 -55 -20 -89 -55
-14 -14 -38 -35 -53 -46 -15 -11 -27 -25 -27 -32 0 -7 -4 -13 -10 -13 -5 0
-10 -4 -10 -10 0 -5 -10 -21 -22 -36 -42 -47 -118 -188 -118 -218 0 -7 -7 -27
-15 -44 -9 -17 -20 -56 -25 -86 -5 -31 -19 -77 -30 -103 -14 -31 -23 -73 -25
-118 -1 -38 -6 -82 -10 -97 -4 -15 -8 -56 -8 -91 -2 -53 1 -64 13 -59 10 3 9
0 -3 -9 -14 -12 -17 -23 -11 -57 7 -42 17 -53 28 -29 3 6 4 1 3 -13 -1 -14 -6
-28 -12 -32 -6 -4 -2 -8 8 -8 9 0 17 -8 18 -17 0 -10 9 7 19 37 24 67 23 63 5
56 -9 -3 -15 0 -15 9 0 9 10 13 29 12 31 -2 31 1 -5 -84 -8 -17 -14 -35 -14
-41 0 -5 -9 -12 -20 -15 -15 -4 -20 -13 -19 -39 0 -24 2 -28 8 -15 4 10 10 17
13 15 3 -2 15 6 27 16 27 25 27 12 0 -17 -11 -12 -18 -30 -15 -39 2 -10 0 -18
-5 -18 -5 0 -9 -11 -9 -25 0 -14 -6 -28 -14 -31 -11 -4 -11 -16 1 -72 8 -37
18 -96 23 -132 4 -35 13 -66 19 -68 15 -5 14 -29 -1 -35 -9 -4 -9 -6 -1 -6 7
-1 9 -15 6 -43 -4 -29 -3 -39 5 -34 15 9 5 -20 -20 -56 -23 -33 -23 -53 1
-103 30 -63 61 -135 61 -141 0 -14 -25 14 -56 62 -42 66 -68 71 -83 17 -13
-47 -14 -196 -2 -189 13 8 22 -75 18 -167 -3 -76 -3 -77 13 -45 35 74 90 233
90 262 0 9 5 14 10 11 6 -4 8 -10 6 -14 -3 -4 -12 -43 -21 -87 -9 -43 -20 -83
-25 -89 -21 -28 -64 -159 -76 -234 -21 -127 -18 -228 6 -274 27 -49 25 -55 -6
-26 l-26 24 6 -35 c16 -82 56 -165 56 -117 0 16 50 90 57 84 2 -3 0 -15 -7
-26 -6 -12 -15 -52 -21 -89 -23 -151 -23 -144 10 -181 17 -19 31 -40 31 -47 0
-17 68 -98 90 -106 16 -6 17 14 24 270 4 152 9 308 11 347 3 47 2 62 -4 45 -5
-14 -10 -43 -10 -65 -1 -32 -4 -37 -12 -23 -10 19 15 128 30 128 5 0 18 52 30
116 13 64 25 123 28 132 4 10 2 13 -5 8 -7 -4 -12 -3 -12 3 0 5 5 13 10 16 6
4 10 12 9 18 -3 14 9 78 21 122 5 17 11 51 14 76 4 25 16 79 27 120 12 41 22
89 23 107 0 17 4 32 7 32 3 0 9 23 12 52 4 28 11 54 17 58 6 4 10 11 9 16 -4
18 13 64 22 58 5 -3 9 1 9 8 0 10 2 10 9 -1 7 -11 9 -11 13 0 2 7 9 9 17 5 8
-6 10 -20 6 -47 -4 -25 -3 -39 4 -39 6 0 11 -11 11 -25 0 -14 -5 -25 -11 -25
-6 0 -8 9 -4 20 3 11 2 20 -3 20 -13 0 -24 -44 -12 -48 6 -2 10 -11 10 -19 0
-9 -6 -13 -15 -9 -9 3 -15 0 -15 -10 0 -10 6 -14 15 -10 9 3 19 -3 26 -15 14
-27 3 -38 -14 -14 -12 16 -14 15 -14 -14 0 -20 5 -31 14 -31 8 0 11 -5 8 -11
-4 -6 -13 -8 -21 -5 -10 4 -14 -3 -14 -24 0 -17 5 -30 10 -30 6 0 10 -7 10
-16 0 -8 5 -12 10 -9 6 3 10 -3 10 -15 0 -12 4 -19 9 -16 5 3 7 16 4 29 -4 18
-3 19 6 7 9 -12 11 -10 11 10 0 14 3 35 6 47 5 20 8 21 21 8 10 -11 12 -24 7
-48 -4 -17 -6 -40 -5 -51 1 -10 -2 -15 -7 -12 -14 8 -22 -18 -11 -35 11 -17
12 -39 2 -38 -18 3 -36 -2 -30 -7 3 -4 1 -16 -5 -28 -6 -11 -11 -34 -10 -50 3
-36 -15 -95 -37 -120 -9 -11 -11 -16 -4 -13 6 4 13 2 15 -5 3 -8 13 -7 36 5
19 9 32 11 32 5 0 -6 12 1 26 16 15 14 37 26 50 26 12 0 24 5 26 12 2 6 36 13
84 15 90 5 147 -9 309 -77 118 -50 301 -100 255 -70 -8 5 -26 10 -41 10 -14 0
-29 4 -35 9 -5 4 -30 14 -56 21 -26 7 -53 19 -59 26 -6 8 -22 14 -36 14 -13 0
-26 7 -29 15 -4 8 -10 13 -14 10 -5 -3 -7 3 -6 12 2 9 8 19 14 21 7 2 10 8 6
13 -3 5 3 12 13 16 10 4 21 11 25 17 4 7 14 6 30 -1 52 -26 100 -36 108 -23 4
7 12 10 18 6 12 -7 42 3 42 14 0 4 -19 10 -41 14 -23 4 -39 9 -36 12 3 3 28 1
56 -5 28 -6 57 -8 66 -5 9 4 26 -2 39 -15 17 -16 37 -22 88 -24 36 -1 64 -5
62 -9 -2 -3 2 -9 8 -11 10 -4 10 -6 1 -6 -7 -1 -13 -5 -13 -10 0 -6 15 -4 34
4 32 13 34 13 39 -5 3 -12 13 -20 24 -19 16 1 16 2 1 6 -26 7 -22 20 7 25 21
4 24 2 20 -12 -5 -15 1 -17 35 -15 29 2 40 -2 40 -12 0 -9 -8 -13 -22 -11 -19
2 -23 -2 -23 -22 0 -26 -11 -29 -65 -16 -24 6 -24 6 -3 -3 18 -8 22 -17 19
-40 -3 -26 -1 -28 15 -18 18 11 18 12 1 18 -16 6 -16 7 2 14 11 5 22 3 28 -6
8 -11 9 -10 4 4 -5 14 -2 17 12 13 13 -5 22 1 30 19 7 14 19 28 27 31 8 4 15
14 15 23 0 14 2 14 10 1 5 -9 6 -16 0 -18 -5 -2 -7 -9 -4 -17 3 -7 -2 -27 -11
-44 -9 -19 -11 -31 -5 -31 13 0 0 -26 -29 -57 -12 -12 -21 -29 -21 -38 0 -9
-4 -14 -8 -11 -5 3 -9 0 -10 -7 -1 -7 -4 -39 -7 -72 -4 -33 -13 -67 -21 -76
-10 -11 -12 -23 -6 -40 6 -15 5 -33 -1 -47 -8 -17 -8 -29 1 -43 11 -17 9 -21
-9 -27 -11 -4 -20 -11 -20 -15 3 -26 0 -37 -10 -32 -6 4 -13 -2 -15 -12 -3
-11 -21 -26 -39 -33 -18 -7 -36 -20 -39 -29 -4 -9 -18 -36 -32 -61 -46 -79
-64 -206 -33 -226 5 -3 9 -18 9 -35 0 -16 5 -29 10 -29 6 0 10 -11 10 -25 0
-19 5 -25 22 -25 17 0 19 -3 10 -12 -16 -16 -15 -39 1 -37 30 4 48 -2 64 -21
11 -12 36 -22 65 -26 31 -4 48 -12 51 -23 4 -13 5 -12 6 3 1 11 6 16 15 13 7
-3 19 0 25 6 8 8 11 8 11 -2 0 -7 4 -9 10 -6 5 3 19 1 31 -6 12 -6 70 -13 129
-15 86 -3 109 -1 113 10 3 8 24 17 47 21 24 4 44 14 48 23 17 45 85 92 134 92
13 0 18 5 15 13 -5 14 4 17 60 17 18 0 35 5 38 10 3 6 17 10 30 10 31 0 126
42 144 63 12 15 10 17 -15 17 -16 0 -68 -7 -117 -15 -62 -11 -93 -13 -106 -5
-27 14 -32 13 -61 -11 l-25 -20 25 6 c14 3 -2 -8 -35 -25 -100 -51 -226 -37
-292 32 -66 69 -83 90 -83 108 0 10 -9 22 -20 25 -11 4 -18 11 -15 16 3 4 -4
22 -17 39 -19 26 -20 34 -10 50 7 11 12 29 12 40 0 13 7 20 20 20 13 0 20 7
20 19 0 10 7 24 15 31 17 14 21 35 5 25 -14 -9 -12 4 3 19 7 7 17 11 24 9 6
-2 11 6 11 19 0 13 3 75 7 138 7 140 7 131 0 208 -3 35 -1 91 6 125 6 34 13
74 14 89 2 15 9 46 15 69 8 27 8 45 2 51 -6 6 -8 16 -5 24 13 33 -50 144 -82
144 -8 0 -22 11 -33 25 -11 14 -29 25 -41 25 -23 0 -29 25 -8 33 7 4 6 6 -4 6
-9 1 -19 9 -21 19 -3 10 -20 29 -38 42 l-32 23 7 -22 c7 -23 7 -23 -22 -5 -15
10 -38 30 -51 44 -53 59 -54 60 -73 49 -12 -6 -19 -6 -19 0 0 5 6 12 13 14 6
3 -23 4 -65 3 -75 -2 -107 8 -50 17 27 4 17 5 -78 11 -14 0 -32 5 -40 10 -8 6
-27 9 -42 8 -15 -1 -28 2 -28 7 0 5 -18 7 -39 4 -22 -3 -53 -1 -70 5 -17 6
-33 7 -36 2 -3 -5 7 -11 22 -13 l28 -4 -28 -2 c-15 0 -30 5 -33 12 -3 8 -17
12 -37 10 -29 -3 -27 -1 13 15 l45 17 -37 3 c-20 2 -47 -2 -58 -8 -16 -9 -25
-8 -36 1 -9 7 -30 9 -60 5 -26 -3 -54 -1 -66 5 -27 14 -38 1 -14 -17 19 -14
19 -14 -3 -14 -13 0 -29 8 -36 17 -11 15 -15 15 -49 -6 -36 -23 -38 -23 -51
-5 -12 17 -11 19 6 22 13 2 18 9 15 17 -3 8 -1 17 4 20 7 4 6 13 0 25 -7 13
-7 21 0 25 8 5 8 11 0 20 -9 11 -6 12 12 7 21 -5 22 -4 9 12 -13 15 -13 19 0
27 12 8 11 12 -5 24 -11 8 -17 18 -13 21 9 9 37 -15 37 -32 0 -8 9 -14 20 -14
11 0 20 5 20 10 0 6 -6 10 -14 10 -15 0 -28 31 -30 73 -1 19 2 26 12 22 7 -3
18 -5 23 -5 6 0 7 -5 4 -10 -4 -6 -11 -8 -16 -5 -5 4 -9 -2 -9 -12 0 -20 18
-43 34 -43 5 0 1 6 -9 14 -18 13 -18 14 2 20 15 5 19 13 16 26 -3 11 -9 20
-14 20 -5 0 -9 4 -9 9 0 4 12 6 28 4 21 -4 24 -2 12 6 -13 9 -12 11 3 11 13 0
17 5 12 19 -3 11 1 25 10 34 8 9 15 20 15 26 0 5 8 14 17 20 16 9 16 12 -7 37
-19 20 -21 26 -7 21 17 -6 24 7 9 17 -11 7 -8 46 4 54 5 4 15 20 22 36 11 24
11 31 0 37 -10 7 -10 9 0 9 6 0 12 6 12 14 0 7 6 19 14 25 8 7 14 21 13 31 -1
14 -5 16 -13 9 -8 -7 -14 -6 -19 1 -9 15 3 60 15 60 6 0 10 7 10 16 0 8 5 12
10 9 6 -3 10 -1 10 4 0 6 5 11 11 11 6 0 9 -7 6 -15 -4 -8 -2 -17 3 -20 6 -4
10 4 10 15 0 14 -8 24 -21 27 -21 6 -21 7 -4 20 14 10 15 13 4 13 -10 1 -9 3
4 11 9 5 17 18 17 27 0 15 -2 15 -10 2 -5 -8 -10 -11 -10 -6 0 5 8 18 18 29
12 15 14 21 5 24 -19 7 -16 21 7 28 17 5 18 9 7 27 -9 16 -9 22 1 25 6 3 12
13 12 23 0 10 7 20 15 24 8 3 12 12 9 20 -3 8 0 17 6 21 9 6 9 10 -1 16 -10 6
-8 9 9 9 16 0 22 6 22 23 0 13 5 28 12 35 9 9 9 12 0 12 -7 0 -12 7 -12 16 0
10 -6 14 -15 10 -10 -4 -15 1 -15 14 0 11 6 20 13 20 9 0 8 3 -2 9 -11 7 -11
9 0 14 12 4 11 7 -1 16 -13 10 -13 13 3 22 9 6 15 14 12 20 -4 5 0 9 8 9 8 0
20 7 27 15 7 8 25 15 41 15 15 0 38 4 51 9 25 9 184 25 235 22 18 0 45 4 60
10 56 23 237 29 311 12 23 -6 42 -6 42 -2 0 5 7 9 15 9 8 0 15 -4 15 -10 0 -5
5 -10 11 -10 5 0 7 4 4 10 -6 10 63 -17 83 -32 8 -7 12 -7 12 1 0 15 114 8
134 -8 10 -8 15 -9 18 -1 2 8 11 8 30 1 19 -7 28 -7 30 1 3 8 18 5 46 -10 38
-20 42 -20 43 -4 0 10 3 12 6 5 2 -7 14 -13 24 -13 12 0 17 4 14 11 -8 13 37
-12 47 -26 5 -6 8 -6 8 2 0 7 17 5 53 -7 28 -10 79 -26 112 -35 33 -9 78 -25
100 -36 22 -10 45 -19 50 -19 16 0 151 -57 179 -75 14 -9 31 -15 38 -12 12 4
76 -25 108 -49 8 -6 32 -17 54 -24 28 -9 35 -15 25 -21 -10 -6 -6 -9 14 -9 15
0 27 -5 27 -11 0 -5 -4 -7 -10 -4 -6 3 -7 -1 -4 -9 3 -9 15 -16 25 -16 11 0
36 -11 57 -24 20 -12 48 -27 62 -31 14 -4 34 -14 45 -21 11 -8 26 -14 33 -14
23 0 152 -91 201 -141 26 -26 60 -53 76 -62 60 -30 96 -81 121 -166 13 -45 21
-87 18 -95 -3 -8 -1 -17 5 -21 6 -3 11 -11 11 -16 0 -6 -4 -8 -8 -5 -12 7 -3
-73 11 -98 6 -12 12 -46 13 -77 1 -31 10 -74 19 -95 22 -51 55 -174 47 -174
-4 0 -2 -4 3 -8 6 -4 17 -43 24 -87 7 -44 17 -105 22 -135 5 -30 14 -85 18
-121 5 -37 12 -72 15 -78 4 -6 9 -34 12 -63 3 -28 8 -56 11 -62 4 -6 8 -17 9
-26 9 -57 32 -148 40 -163 6 -11 8 -38 3 -65 -4 -26 -3 -48 2 -50 5 -2 9 -16
9 -30 0 -25 1 -25 40 18 38 43 40 48 39 110 -1 36 -6 71 -11 78 -8 9 -5 12 10
12 17 0 19 5 15 44 -5 39 -1 49 26 84 18 21 31 43 30 48 -4 23 2 44 18 59 13
13 13 19 3 25 -9 6 -8 10 6 19 14 8 15 11 4 11 -11 0 -12 3 -3 8 6 4 23 24 37
45 21 31 23 37 9 37 -14 0 -14 2 3 14 18 14 18 15 0 22 -17 7 -17 8 5 20 21
11 22 13 7 19 -19 8 -25 45 -7 45 7 0 10 23 7 65 -1 36 1 65 6 65 4 0 5 8 2
17 -4 9 -2 19 3 22 5 3 12 37 15 76 4 38 11 72 17 76 7 4 8 19 4 39 -5 21 -4
30 3 26 5 -3 12 4 16 17 10 36 7 67 -6 67 -10 0 -10 2 0 9 8 4 14 33 16 70 2
34 5 63 7 65 2 3 2 39 -1 80 -3 42 -2 76 1 76 8 0 -1 121 -13 159 -6 20 -13
29 -18 22 -4 -7 -6 4 -6 23 1 20 4 36 7 36 16 0 17 44 1 56 -16 12 -16 13 0
14 18 0 37 42 21 47 -6 2 -8 14 -6 27 3 13 0 27 -6 30 -8 5 -8 13 0 27 12 23
5 50 -28 102 -13 21 -21 42 -18 47 3 5 2 11 -3 14 -5 3 -7 21 -6 40 2 20 -1
36 -6 36 -6 0 -10 3 -9 8 2 15 -14 52 -22 52 -5 0 -9 9 -9 20 0 11 -4 20 -10
20 -5 0 -10 5 -10 10 0 6 3 9 8 8 4 -2 8 1 9 6 1 5 6 12 12 15 7 5 -8 28 -39
60 -27 29 -50 59 -50 67 0 8 -4 14 -10 14 -5 0 -20 16 -32 35 -13 19 -30 35
-38 35 -12 0 -13 2 -1 9 11 7 10 11 -5 20 -17 10 -17 10 5 11 24 0 24 0 5 16
-17 14 -17 15 -1 10 17 -5 17 -4 1 23 -13 21 -22 27 -38 23 -19 -5 -20 -4 -7
12 12 15 11 20 -12 44 -31 32 -38 92 -11 92 29 0 8 25 -47 56 -30 18 -64 41
-77 53 -12 12 -26 21 -31 21 -4 0 -16 10 -27 22 -19 21 -19 21 4 16 12 -4 22
-2 22 2 0 14 -83 78 -111 85 -14 3 -38 17 -54 31 -15 13 -35 24 -44 24 -13 0
-13 2 -2 9 10 6 10 10 1 16 -6 4 -15 18 -20 31 -5 13 -16 25 -25 25 -28 3 -33
4 -41 11 -4 4 -19 5 -33 3 -14 -3 -21 -3 -14 1 18 8 -7 32 -28 27 -10 -3 -22
4 -29 16 -8 17 -63 50 -90 55 -3 1 -26 14 -52 29 -45 26 -134 50 -150 41 -5
-3 -8 0 -8 6 0 6 -19 20 -43 30 -24 11 -56 31 -71 45 -15 14 -37 25 -49 25
-18 0 -19 2 -7 10 13 8 12 10 -2 10 -10 0 -18 4 -18 9 0 5 -9 7 -19 4 -13 -3
-21 1 -25 14 -7 23 -86 47 -161 49 -107 2 -109 3 -95 19 10 13 9 15 -9 15 -11
0 -21 5 -21 11 0 7 -14 10 -35 7 -27 -3 -35 0 -35 12 0 32 -32 38 -100 17z
m-511 -126 c-13 -11 -26 -17 -29 -14 -6 6 30 33 43 33 5 0 -1 -9 -14 -19z
m-107 -23 c-7 -7 -12 -8 -12 -2 0 14 12 26 19 19 2 -3 -1 -11 -7 -17z m18 -22
c0 -2 -7 -7 -16 -10 -8 -3 -12 -2 -9 4 6 10 25 14 25 6z m-55 -16 c-3 -5 -12
-10 -18 -10 -7 0 -6 4 3 10 19 12 23 12 15 0z m-175 -27 c0 -5 -10 -19 -21
-33 l-21 -25 18 33 c18 32 24 38 24 25z m60 -13 c-6 -11 -15 -20 -20 -20 -6 0
-5 9 2 20 7 11 16 20 21 20 4 0 3 -9 -3 -20z m-160 -74 c0 -2 -18 -15 -40 -30
-22 -14 -40 -24 -40 -22 0 5 71 56 77 56 2 0 3 -2 3 -4z m1879 -93 c0 -5 -4
-17 -9 -28 -7 -17 -9 -17 -9 -2 -1 10 -9 17 -20 17 -11 0 -23 5 -26 10 -4 6 8
10 29 10 20 0 36 -3 35 -7z m-2224 -33 c-27 -12 -43 -12 -25 0 8 5 22 9 30 9
10 0 8 -3 -5 -9z m2195 -10 c0 -5 -5 -10 -11 -10 -5 0 -7 5 -4 10 3 6 8 10 11
10 2 0 4 -4 4 -10z m144 -61 c19 16 32 -2 25 -34 l-7 -30 -1 28 c-1 26 -21 40
-21 15 0 -9 -4 -8 -10 2 -5 8 -9 20 -9 25 0 6 3 4 6 -3 3 -9 9 -10 17 -3z
m-2674 -89 c0 -5 -4 -10 -10 -10 -5 0 -10 5 -10 10 0 6 5 10 10 10 6 0 10 -4
10 -10z m2868 -65 c-3 -3 -9 2 -12 12 -6 14 -5 15 5 6 7 -7 10 -15 7 -18z
m-2933 -34 c-3 -12 -11 -21 -16 -21 -6 0 -8 3 -6 8 2 4 7 16 11 26 9 25 20 13
11 -13z m2945 -5 c0 -3 -4 -8 -10 -11 -5 -3 -10 -1 -10 4 0 6 5 11 10 11 6 0
10 -2 10 -4z m-2983 -78 c-3 -8 -6 -5 -6 6 -1 11 2 17 5 13 3 -3 4 -12 1 -19z
m3022 3 c7 -5 10 -14 7 -20 -5 -8 -11 -7 -22 3 -24 24 -14 35 15 17z m191
-135 c0 -2 -7 -7 -16 -10 -8 -3 -12 -2 -9 4 6 10 25 14 25 6z m-190 -166 c0
-5 -5 -10 -11 -10 -5 0 -7 5 -4 10 3 6 8 10 11 10 2 0 4 -4 4 -10z m-3300 -80
c0 -5 -4 -10 -10 -10 -5 0 -10 5 -10 10 0 6 5 10 10 10 6 0 10 -4 10 -10z
m3350 0 c0 -5 -2 -10 -4 -10 -3 0 -8 5 -11 10 -3 6 -1 10 4 10 6 0 11 -4 11
-10z m-3335 -135 c-10 -28 -14 -33 -15 -17 0 20 20 65 27 59 1 -2 -4 -21 -12
-42z m-42 10 c-3 -9 -8 -14 -10 -11 -3 3 -2 9 2 15 9 16 15 13 8 -4z m577
-145 c0 -5 -5 -10 -11 -10 -5 0 -7 5 -4 10 3 6 8 10 11 10 2 0 4 -4 4 -10z
m20 -130 c0 -5 -7 -10 -16 -10 -8 0 -12 5 -9 10 3 6 10 10 16 10 5 0 9 -4 9
-10z m-813 -6 c-3 -3 -12 -4 -19 -1 -8 3 -5 6 6 6 11 1 17 -2 13 -5z m40 -10
c-3 -3 -12 -4 -19 -1 -8 3 -5 6 6 6 11 1 17 -2 13 -5z m783 -14 c0 -5 -11 -10
-24 -10 -13 0 -27 -6 -29 -12 -4 -8 -6 -7 -6 4 -1 15 14 24 47 27 6 0 12 -3
12 -9z m-40 -91 c0 -5 -9 -9 -20 -9 -22 0 -27 16 -7 23 15 5 27 -1 27 -14z
m-873 -236 c-3 -10 -5 -4 -5 12 0 17 2 24 5 18 2 -7 2 -21 0 -30z m753 7 c0
-5 -4 -10 -10 -10 -5 0 -10 5 -10 10 0 6 5 10 10 10 6 0 10 -4 10 -10z m1 -77
c-12 -20 -14 -14 -5 12 4 9 9 14 11 11 3 -2 0 -13 -6 -23z m9 -87 c0 -9 -7
-12 -20 -9 -11 3 -17 9 -14 14 8 14 34 10 34 -5z m3424 -16 c16 -33 14 -35
-13 -18 -11 7 -16 19 -13 30 6 24 8 23 26 -12z m-4204 -25 c0 -8 -4 -15 -9
-15 -13 0 -22 16 -14 24 11 11 23 6 23 -9z m56 -52 c-7 -7 -26 7 -26 19 0 6 6
6 15 -2 9 -7 13 -15 11 -17z m4141 0 c3 -7 -4 -9 -15 -6 -11 2 -23 0 -26 -6
-4 -6 -22 -10 -39 -10 -27 2 -28 2 -7 6 13 3 33 11 45 19 21 15 37 14 42 -3z
m-4120 -39 c-9 -9 -28 6 -21 18 4 6 10 6 17 -1 6 -6 8 -13 4 -17z m13 -54 c0
-5 -2 -10 -4 -10 -3 0 -8 5 -11 10 -3 6 -1 10 4 10 6 0 11 -4 11 -10z m570
-25 c-16 -20 -30 -19 -30 1 0 10 6 14 15 10 8 -3 15 0 15 6 0 6 3 8 6 5 4 -4
1 -13 -6 -22z m-50 -45 c0 -5 -5 -10 -11 -10 -5 0 -7 5 -4 10 3 6 8 10 11 10
2 0 4 -4 4 -10z m-27 -47 c-7 -2 -19 -2 -25 0 -7 3 -2 5 12 5 14 0 19 -2 13
-5z m-33 -38 c0 -8 -2 -15 -4 -15 -2 0 -6 7 -10 15 -3 8 -1 15 4 15 6 0 10 -7
10 -15z m-2 -50 c-3 -3 -9 2 -12 12 -6 14 -5 15 5 6 7 -7 10 -15 7 -18z m-574
-10 c-4 -8 -8 -15 -10 -15 -2 0 -4 7 -4 15 0 8 4 15 10 15 5 0 7 -7 4 -15z
m66 -45 c0 -5 -5 -10 -11 -10 -5 0 -7 5 -4 10 3 6 8 10 11 10 2 0 4 -4 4 -10z
m13 -30 c-5 -19 -23 -29 -23 -12 0 7 20 32 26 32 1 0 0 -9 -3 -20z m44 -26
c-3 -3 -12 -4 -19 -1 -8 3 -5 6 6 6 11 1 17 -2 13 -5z m-57 -42 c-5 -2 -6 -11
-3 -20 5 -14 3 -14 -16 3 -19 16 -24 17 -31 5 -6 -8 -10 -10 -10 -4 0 6 7 17
15 24 10 9 15 9 15 1 0 -6 5 -11 10 -11 6 0 10 8 10 18 0 14 2 15 10 2 5 -9 6
-16 0 -18z m23 -27 c-3 -9 -8 -14 -10 -11 -3 3 -2 9 2 15 9 16 15 13 8 -4z
m37 11 c0 -3 -4 -8 -10 -11 -5 -3 -10 -1 -10 4 0 6 5 11 10 11 6 0 10 -2 10
-4z m5 -46 c3 -5 -1 -10 -9 -10 -8 0 -18 5 -21 10 -3 6 1 10 9 10 8 0 18 -4
21 -10z m-75 -32 c-12 -11 -24 -17 -28 -13 -3 3 0 10 7 14 7 5 11 13 7 19 -4
6 2 8 14 5 l21 -6 -21 -19z m514 -9 c-6 -11 -24 -2 -24 11 0 5 7 7 15 4 8 -4
12 -10 9 -15z m1 -49 c3 -5 1 -10 -4 -10 -6 0 -11 5 -11 10 0 6 2 10 4 10 3 0
8 -4 11 -10z m91 -27 c-7 -7 -26 7 -26 19 0 6 6 6 15 -2 9 -7 13 -15 11 -17z
m-56 0 c-8 -3 -18 -11 -22 -17 -9 -14 -22 -1 -13 13 3 6 16 11 28 10 15 0 17
-2 7 -6z m517 1 c-3 -3 -12 -4 -19 -1 -8 3 -5 6 6 6 11 1 17 -2 13 -5z m-60
-10 c-3 -3 -12 -4 -19 -1 -8 3 -5 6 6 6 11 1 17 -2 13 -5z m-477 -64 c0 -15
-5 -12 -26 11 -19 22 -19 22 4 10 12 -6 22 -16 22 -21z m-33 -6 c-3 -3 -12 -4
-19 -1 -8 3 -5 6 6 6 11 1 17 -2 13 -5z m-380 -30 c-3 -3 -12 -4 -19 -1 -8 3
-5 6 6 6 11 1 17 -2 13 -5z m954 -118 c4 -5 18 -8 33 -8 14 0 26 -5 26 -10 0
-5 5 -6 10 -3 6 3 10 2 10 -2 0 -5 23 -16 50 -26 28 -10 50 -22 50 -26 0 -5
-20 -9 -45 -9 -25 -1 -50 -4 -56 -8 -10 -6 -89 -12 -226 -17 -35 -1 -63 -5
-63 -9 0 -5 -16 -8 -35 -8 -24 0 -35 -5 -35 -15 0 -9 -6 -12 -15 -9 -8 4 -15
1 -15 -5 0 -7 -10 -9 -27 -5 -20 4 -24 3 -14 -4 24 -17 -20 -34 -49 -19 -32
16 -37 37 -11 44 35 9 24 22 -14 16 -37 -6 -43 0 -21 22 9 9 27 12 56 8 31 -4
41 -3 36 5 -5 8 5 12 32 12 32 0 39 4 38 18 -1 17 6 19 37 7 9 -4 17 -3 17 3
0 6 -8 13 -17 15 -10 3 1 5 25 6 23 0 42 5 42 9 0 21 167 38 181 18z m-601 -6
c0 -5 -7 -10 -15 -10 -8 0 -15 5 -15 10 0 6 7 10 15 10 8 0 15 -4 15 -10z
m-426 -169 c-6 -7 -44 31 -44 43 0 6 11 -1 24 -14 13 -14 22 -27 20 -29z m506
9 c-20 -13 -40 -13 -40 0 0 6 12 10 28 10 21 0 24 -2 12 -10z m9 -27 c3 -5 14
-12 24 -16 30 -11 10 -26 -23 -17 -42 12 -38 -5 8 -29 l37 -20 -47 -1 c-27 0
-48 3 -48 8 0 4 -14 15 -30 24 -22 13 -29 23 -28 43 2 24 5 25 51 22 27 -2 52
-9 56 -14z m681 -13 c0 -13 -7 -20 -20 -20 -19 0 -27 20 -13 33 13 14 33 6 33
-13z m-1156 -36 c3 -8 2 -12 -4 -9 -6 3 -10 10 -10 16 0 14 7 11 14 -7z m1341
-35 c44 -49 45 -60 3 -48 -18 5 -47 9 -64 9 -42 0 -44 5 -27 49 19 48 38 45
88 -10z m-765 -29 c0 -4 -28 -12 -62 -19 -34 -7 -71 -19 -82 -27 -11 -8 -36
-14 -56 -14 -33 0 -35 2 -35 35 l0 34 117 -2 c65 -1 118 -4 118 -7z m840 -30
c0 -5 -7 -10 -15 -10 -8 0 -15 5 -15 10 0 6 7 10 15 10 8 0 15 -4 15 -10z
m-1107 -25 c-7 -21 -13 -19 -13 6 0 11 4 18 10 14 5 -3 7 -12 3 -20z m1262
-15 c3 -5 1 -10 -4 -10 -6 0 -11 5 -11 10 0 6 2 10 4 10 3 0 8 -4 11 -10z
m2245 -160 c0 -11 -4 -20 -9 -20 -6 0 -9 9 -8 20 1 11 5 20 9 20 4 0 8 -9 8
-20z m-2350 -263 c0 -5 -4 -5 -10 -2 -5 3 -10 14 -10 23 0 15 2 15 10 2 5 -8
10 -19 10 -23z m-14 -207 c14 0 13 -26 -3 -70 -3 -8 -7 -28 -8 -45 -4 -33 -33
-146 -34 -130 -1 6 -19 30 -41 55 -42 48 -46 60 -30 90 6 10 11 30 12 44 2 17
8 26 19 26 10 0 28 13 41 28 15 19 24 24 26 15 2 -7 10 -13 18 -13z m-116
-464 c0 -3 -4 -8 -10 -11 -5 -3 -10 -1 -10 4 0 6 5 11 10 11 6 0 10 -2 10 -4z"/>
<path d="M4935 7820 c3 -5 8 -10 11 -10 2 0 4 5 4 10 0 6 -5 10 -11 10 -5 0
-7 -4 -4 -10z"/>
<path d="M3830 7760 c0 -6 7 -10 15 -10 8 0 15 2 15 4 0 2 -7 6 -15 10 -8 3
-15 1 -15 -4z"/>
<path d="M3810 7680 c0 -5 7 -10 15 -10 8 0 15 5 15 10 0 6 -7 10 -15 10 -8 0
-15 -4 -15 -10z"/>
<path d="M3890 7370 c0 -5 5 -10 10 -10 6 0 10 5 10 10 0 6 -4 10 -10 10 -5 0
-10 -4 -10 -10z"/>
<path d="M3585 6810 c3 -5 8 -10 11 -10 2 0 4 5 4 10 0 6 -5 10 -11 10 -5 0
-7 -4 -4 -10z"/>
<path d="M3561 6740 c-13 -11 -21 -20 -18 -20 14 0 57 24 57 32 0 13 -13 9
-39 -12z"/>
<path d="M3505 6560 c-3 -5 -1 -10 4 -10 6 0 11 5 11 10 0 6 -2 10 -4 10 -3 0
-8 -4 -11 -10z"/>
<path d="M3503 6503 c9 -9 19 -14 23 -11 10 10 -6 28 -24 28 -15 0 -15 -1 1
-17z"/>
<path d="M3208 6413 c6 -2 18 -2 25 0 6 3 1 5 -13 5 -14 0 -19 -2 -12 -5z"/>
<path d="M6030 6388 c-19 -5 -48 -12 -65 -17 -18 -4 -47 -2 -71 5 -27 8 -46 9
-58 2 -10 -5 -34 -7 -54 -4 -26 5 -33 4 -22 -3 8 -6 16 -20 16 -31 1 -17 -3
-20 -30 -16 -97 15 -128 17 -122 7 4 -6 -3 -7 -21 -2 -45 13 -205 2 -256 -18
-15 -6 -31 -10 -35 -9 -14 4 -72 -33 -83 -53 -13 -26 -5 -36 16 -19 17 15 19
7 5 -21 -18 -33 9 -22 28 11 16 29 42 41 42 20 0 -5 -5 -10 -11 -10 -5 0 -7
-4 -4 -10 3 -5 1 -10 -4 -10 -6 0 -11 -6 -11 -13 0 -8 -11 -20 -25 -27 -15 -8
-25 -22 -25 -35 0 -27 -18 -45 -47 -45 -24 0 -32 -16 -10 -23 6 -2 4 -3 -5 -2
-10 2 -30 -13 -48 -33 -16 -21 -39 -47 -51 -59 l-22 -22 29 -11 c16 -6 36 -9
46 -7 9 3 22 -1 29 -9 7 -9 20 -11 37 -7 17 4 23 2 18 -6 -9 -15 17 -14 32 1
6 6 14 9 18 6 3 -4 -11 -18 -32 -32 -21 -14 -39 -34 -41 -46 -2 -16 3 -20 30
-22 17 -1 41 -2 52 -3 11 -1 26 -4 32 -8 6 -4 13 -2 15 5 3 7 30 12 76 12 51
1 71 -2 68 -11 -8 -20 7 -23 27 -6 11 10 17 12 13 6 -14 -24 12 -13 41 17 26
28 72 43 58 19 -4 -6 -13 -8 -21 -5 -8 3 -14 1 -14 -3 0 -5 -3 -18 -6 -28 -5
-17 -5 -17 6 0 6 9 17 17 24 17 8 0 19 7 26 15 8 9 21 13 35 9 13 -3 33 -1 44
6 18 9 27 7 50 -10 16 -11 31 -16 33 -11 5 14 109 17 143 4 17 -6 39 -14 50
-18 28 -10 176 -12 182 -2 2 4 -12 7 -31 7 -20 0 -36 4 -36 9 0 5 37 8 83 6
45 -1 60 -1 32 1 -69 6 -95 12 -95 25 0 7 15 8 43 4 l42 -7 -29 26 c-16 14
-35 26 -43 26 -7 0 -13 6 -13 13 0 8 -25 22 -55 32 -30 11 -55 22 -55 26 0 11
-59 32 -75 26 -8 -4 -34 2 -57 12 -43 19 -125 32 -228 37 -111 4 -167 29 -123
52 10 6 54 18 98 27 43 9 85 21 92 27 8 6 33 8 66 4 97 -12 232 -5 282 14 35
13 38 13 32 -4 -6 -15 39 -30 48 -16 3 4 33 8 67 9 77 1 128 10 128 22 0 5 9
9 20 9 11 0 20 4 20 9 0 4 -23 9 -51 10 -27 0 -58 5 -67 11 -12 7 -5 8 27 3
32 -4 42 -3 37 5 -4 7 -1 12 6 12 10 0 10 2 -1 9 -11 7 -11 9 0 14 8 3 1 6
-14 6 -16 1 -26 -3 -22 -9 3 -5 2 -10 -4 -10 -5 0 -12 8 -14 18 -4 16 -5 16
-6 0 -1 -17 -4 -17 -48 1 -27 10 -65 17 -85 16 -21 -1 -38 1 -38 5 0 4 -12 13
-27 21 -26 14 -26 14 33 25 58 11 58 11 32 24 -23 11 -29 10 -43 -4 -21 -21
-42 -22 -25 -1 17 21 11 23 -30 13z m-161 -54 c2 -2 -11 -4 -30 -5 -28 0 -30
-2 -14 -9 11 -5 15 -9 8 -9 -21 -2 -43 11 -43 24 0 10 10 12 38 8 20 -3 39 -7
41 -9z m111 6 c0 -6 -11 -8 -27 -4 -40 10 -41 14 -5 14 18 0 32 -5 32 -10z
m80 -20 c0 -5 -7 -10 -15 -10 -8 0 -15 -4 -15 -9 0 -5 -15 -5 -36 -1 -50 12
-53 19 -5 13 27 -4 41 -2 41 6 0 6 7 11 15 11 8 0 15 -4 15 -10z m-90 -38
c-18 -6 -81 8 -76 17 3 5 24 3 46 -3 23 -6 36 -12 30 -14z m250 -16 c0 -9 -30
-14 -35 -6 -4 6 3 10 14 10 12 0 21 -2 21 -4z m-313 -72 c-3 -3 -12 -4 -19 -1
-8 3 -5 6 6 6 11 1 17 -2 13 -5z m220 0 c-3 -3 -12 -4 -19 -1 -8 3 -5 6 6 6
11 1 17 -2 13 -5z m-434 -21 c-7 -2 -19 -2 -25 0 -7 3 -2 5 12 5 14 0 19 -2
13 -5z m-396 -23 c-14 -11 -29 -20 -34 -20 -11 1 37 40 49 40 6 0 -1 -9 -15
-20z m378 -185 c0 -28 -29 -25 -33 3 -3 19 0 23 15 20 10 -2 18 -12 18 -23z
m-189 -60 c3 -20 4 -38 1 -41 -7 -7 -97 7 -97 15 1 18 54 61 77 61 7 0 15 -16
19 -35z m194 -35 c0 -5 -4 -10 -10 -10 -5 0 -10 5 -10 10 0 6 5 10 10 10 6 0
10 -4 10 -10z m-395 -30 c4 -6 -5 -10 -19 -10 -14 0 -26 5 -26 10 0 6 9 10 19
10 11 0 23 -4 26 -10z"/>
<path d="M5690 6370 c13 -9 13 -10 0 -10 -13 0 -13 -1 0 -10 8 -5 29 -10 45
-9 l30 0 -35 19 c-36 20 -67 27 -40 10z"/>
<path d="M6128 6343 c-18 -3 -28 -10 -28 -21 0 -11 3 -13 8 -6 4 8 23 9 52 5
25 -4 59 -4 75 0 27 6 26 7 -12 8 -24 0 -43 6 -43 11 0 10 -3 10 -52 3z"/>
<path d="M6230 6300 c0 -5 5 -10 11 -10 5 0 7 5 4 10 -3 6 -8 10 -11 10 -2 0
-4 -4 -4 -10z"/>
<path d="M6340 6169 c0 -7 -14 -8 -40 -4 -50 8 -168 -4 -150 -15 9 -6 4 -10
-16 -13 -16 -3 -9 -3 16 -1 55 5 50 5 130 0 47 -3 55 -2 30 4 l-35 7 38 2 c20
0 37 5 37 10 0 5 8 12 18 14 13 4 11 5 -5 6 -13 0 -23 -4 -23 -10z"/>
<path d="M3211 6080 c0 -8 6 -24 14 -34 19 -25 19 -9 0 24 -8 14 -14 19 -14
10z"/>
<path d="M7057 6052 c-10 -10 -17 -22 -17 -27 0 -4 9 2 20 15 11 13 20 25 20
27 0 7 -8 2 -23 -15z"/>
<path d="M3200 6030 c0 -5 5 -10 11 -10 5 0 7 5 4 10 -3 6 -8 10 -11 10 -2 0
-4 -4 -4 -10z"/>
<path d="M2733 5860 c0 -36 2 -50 4 -32 2 17 2 47 0 65 -2 17 -4 3 -4 -33z"/>
<path d="M4044 5838 c-4 -6 -3 -8 4 -4 6 3 13 2 17 -4 4 -6 11 -7 17 -4 6 4 5
10 -3 15 -19 12 -27 11 -35 -3z"/>
<path d="M5390 5799 c0 -5 9 -9 20 -9 11 0 20 2 20 4 0 2 -9 6 -20 9 -11 3
-20 1 -20 -4z"/>
<path d="M4370 5756 c0 -2 7 -6 15 -10 8 -3 15 -1 15 4 0 6 -7 10 -15 10 -8 0
-15 -2 -15 -4z"/>
<path d="M5250 5740 c0 -5 5 -10 11 -10 5 0 7 5 4 10 -3 6 -8 10 -11 10 -2 0
-4 -4 -4 -10z"/>
<path d="M3176 5725 c-3 -8 -1 -15 4 -15 6 0 10 7 10 15 0 8 -2 15 -4 15 -2 0
-6 -7 -10 -15z"/>
<path d="M3260 5726 c0 -8 -9 -18 -20 -21 -36 -11 -21 -23 23 -18 51 7 47 4
40 31 -6 24 -43 31 -43 8z"/>
<path d="M5348 5733 c7 -3 16 -2 19 1 4 3 -2 6 -13 5 -11 0 -14 -3 -6 -6z"/>
<path d="M4268 5723 c7 -3 16 -2 19 1 4 3 -2 6 -13 5 -11 0 -14 -3 -6 -6z"/>
<path d="M2727 5676 c-4 -27 -7 -65 -6 -85 1 -30 3 -25 15 29 9 40 11 72 6 85
-7 15 -10 9 -15 -29z"/>
<path d="M5290 5700 c0 -5 5 -10 11 -10 5 0 7 5 4 10 -3 6 -8 10 -11 10 -2 0
-4 -4 -4 -10z"/>
<path d="M5375 5700 c-4 -6 5 -10 19 -10 14 0 26 5 26 10 0 6 -9 10 -19 10
-11 0 -23 -4 -26 -10z"/>
<path d="M6850 5669 c0 -24 17 -59 29 -59 15 0 20 42 8 61 -16 25 -37 24 -37
-2z"/>
<path d="M3227 5662 c-9 -10 -17 -24 -17 -31 0 -7 -5 -9 -11 -6 -6 4 -13 -2
-16 -14 -3 -12 -9 -21 -14 -21 -10 0 -33 -49 -31 -62 1 -4 -3 -20 -10 -35 -6
-15 -10 -34 -9 -40 1 -7 -3 -13 -10 -13 -7 0 -9 -10 -7 -25 3 -14 2 -25 -1
-25 -3 0 -14 -12 -24 -25 -12 -17 -13 -23 -4 -19 8 3 20 -2 27 -11 7 -9 9 -15
4 -14 -27 5 -33 -2 -24 -26 6 -16 6 -25 0 -25 -5 0 -9 -18 -8 -41 1 -24 -4
-44 -12 -49 -7 -4 -10 -17 -7 -29 3 -12 1 -24 -5 -27 -6 -4 -5 -10 3 -16 11
-7 11 -11 2 -15 -7 -2 -13 -20 -13 -39 0 -24 4 -33 12 -28 7 5 9 2 5 -8 -3 -9
0 -21 6 -27 7 -7 7 -11 1 -11 -12 0 -16 -120 -4 -135 13 -18 20 -64 11 -70 -5
-3 -12 5 -14 17 -3 18 -5 16 -6 -7 0 -17 3 -35 8 -40 5 -6 12 -50 16 -100 15
-192 21 -225 44 -226 14 0 14 -1 0 -7 -13 -6 -13 -13 -1 -55 7 -26 17 -45 23
-42 5 3 6 -1 3 -9 -7 -19 25 -126 37 -126 5 0 9 -13 9 -30 0 -16 5 -30 10 -30
6 0 10 -9 10 -19 0 -28 11 -52 21 -45 9 5 13 -9 10 -33 -1 -7 3 -13 9 -13 6 0
9 -4 6 -9 -3 -4 15 -38 39 -75 25 -36 45 -71 45 -76 0 -6 4 -10 9 -10 11 0 26
-39 23 -57 -1 -6 11 -21 28 -33 16 -12 30 -30 30 -41 0 -10 4 -19 9 -19 5 0
19 -16 31 -35 12 -19 28 -35 36 -35 8 0 14 -7 14 -15 0 -8 6 -15 14 -15 7 0
16 -11 18 -25 3 -14 1 -25 -3 -25 -8 0 -13 15 -10 32 0 4 -6 5 -14 2 -18 -7
-19 -20 -2 -28 6 -3 2 -3 -10 0 -26 6 -27 5 -13 -30 6 -17 6 -26 0 -26 -6 0
-10 -7 -10 -15 0 -8 5 -15 10 -15 6 0 10 5 10 12 0 6 2 9 5 6 3 -3 0 -18 -7
-34 -9 -21 -19 -29 -33 -26 -15 2 -17 1 -6 -6 7 -5 17 -28 21 -51 6 -34 5 -41
-6 -37 -12 4 -12 1 -4 -15 6 -11 9 -28 6 -37 -5 -15 -6 -49 -5 -157 0 -11 5
-23 12 -27 9 -6 8 -10 -3 -18 -17 -11 -20 -71 -5 -82 6 -5 5 -11 -4 -17 -9 -6
-12 -19 -7 -43 3 -19 3 -38 -1 -42 -4 -3 -9 -14 -11 -24 -6 -27 -10 -56 -11
-70 -1 -8 -7 -12 -13 -9 -7 2 -12 10 -10 16 1 6 -5 26 -14 43 -10 19 -14 44
-11 65 4 20 2 33 -5 33 -7 0 -8 20 -3 58 l7 57 -34 -47 c-27 -37 -37 -45 -46
-36 -9 9 -12 8 -12 -5 0 -9 -4 -18 -10 -18 -20 -3 -25 -4 -37 -12 -20 -12 -31
0 -26 28 5 22 64 86 148 159 58 51 -50 -3 -170 -84 -100 -68 -152 -99 -183
-111 -25 -9 -25 -7 8 20 l35 30 -60 -18 c-33 -10 -70 -23 -82 -30 -12 -6 -46
-16 -74 -21 -29 -6 -89 -32 -138 -59 -47 -27 -113 -59 -146 -71 -134 -49 -296
-115 -395 -162 -58 -27 -139 -62 -180 -78 -41 -15 -147 -62 -235 -105 -88 -42
-207 -100 -265 -128 -58 -27 -183 -92 -278 -144 -145 -79 -435 -223 -448 -223
-2 0 -59 -26 -126 -59 -68 -32 -179 -85 -248 -117 -105 -48 -287 -145 -378
-201 l-22 -13 0 -775 0 -775 4900 0 4900 0 0 584 0 584 -92 74 c-96 75 -288
208 -303 208 -4 0 -14 8 -22 17 -8 10 -12 12 -8 5 3 -7 -18 2 -47 19 -64 37
-71 44 -39 36 44 -11 -35 47 -154 114 -60 34 -150 87 -200 117 -49 30 -207
114 -350 187 -399 204 -539 276 -553 288 -13 10 -470 237 -478 237 -3 0 -43
18 -90 40 -47 22 -129 56 -182 76 -111 41 -188 78 -217 103 -31 27 -75 52
-106 61 -33 10 -37 4 -11 -17 33 -26 -61 16 -105 48 -40 28 -62 27 -28 -1 8
-7 15 -17 15 -23 0 -6 -33 23 -74 65 -74 76 -77 77 -270 169 -22 10 -41 17
-43 15 -2 -2 54 -56 124 -120 194 -176 224 -233 225 -422 0 -151 -20 -272 -79
-464 -68 -224 -250 -499 -475 -716 -158 -153 -252 -214 -476 -313 -214 -94
-482 -135 -732 -112 -441 41 -783 184 -1151 483 -89 71 -282 267 -355 358
l-28 35 40 -36 c21 -20 44 -35 51 -32 7 2 15 -7 19 -21 3 -14 10 -23 15 -20 5
3 6 -3 2 -13 -6 -16 -5 -16 10 -4 9 7 14 18 10 24 -3 5 -1 7 4 4 6 -4 9 -21 7
-39 l-2 -33 13 30 c7 17 11 33 8 38 -2 4 1 7 6 7 6 0 11 10 11 23 0 13 3 26 6
30 9 9 34 -4 34 -18 0 -7 7 -16 16 -19 12 -5 14 -1 8 17 -3 12 -11 28 -16 35
-8 8 -6 12 6 12 9 0 16 -7 16 -15 0 -8 5 -15 10 -15 6 0 10 -7 10 -15 0 -8 7
-15 15 -15 28 0 30 -31 4 -51 -16 -12 -19 -19 -9 -18 19 0 64 39 74 64 6 17
10 14 25 -20 18 -39 51 -77 51 -58 0 6 -8 21 -18 34 -26 36 -46 78 -39 85 10
11 27 -6 28 -29 1 -17 2 -18 6 -4 2 9 13 17 23 17 10 0 21 6 24 13 5 9 7 9 12
-1 3 -6 10 -10 15 -6 10 6 -14 34 -30 34 -6 0 -11 5 -11 11 0 5 -3 8 -7 6 -5
-3 -24 8 -43 24 -20 17 -28 29 -19 29 8 0 20 -5 27 -12 15 -15 16 -3 2 23 -9
16 -7 19 9 19 11 0 22 -6 25 -12 3 -7 3 -3 0 10 -3 12 -1 22 5 22 6 0 11 4 11
10 0 5 -8 9 -17 8 -34 -2 -54 2 -49 11 3 5 16 7 29 5 12 -2 16 -2 10 2 -7 3
-13 12 -13 19 0 7 -7 15 -15 19 -28 11 -16 28 15 21 25 -5 29 -4 24 9 -3 9
-10 16 -15 16 -17 0 -9 19 11 25 22 7 28 50 8 59 -7 3 -3 3 8 1 18 -5 21 -2
16 20 -3 18 0 25 12 25 24 0 32 31 12 45 -15 11 -10 13 29 12 28 -1 49 -8 55
-17 9 -13 11 -13 19 -1 6 10 1 24 -17 48 -15 18 -30 33 -34 33 -5 0 -8 5 -8
11 0 6 9 9 20 6 25 -6 36 8 14 17 -9 4 -14 9 -11 13 4 3 13 0 21 -7 20 -16 84
-30 88 -19 4 11 48 0 48 -12 0 -5 -5 -8 -11 -6 -6 1 -14 -4 -16 -12 -4 -10 4
-12 35 -9 24 2 40 -1 39 -7 -1 -5 14 -9 33 -8 19 1 53 3 75 4 22 1 43 7 47 13
5 7 8 5 8 -5 0 -9 11 -21 24 -27 21 -9 27 -8 41 14 15 24 50 30 47 9 0 -5 8
-13 19 -17 11 -4 17 -12 14 -18 -3 -5 1 -10 10 -10 10 0 13 5 9 12 -5 7 -2 9
8 6 9 -4 37 -10 64 -14 27 -4 51 -10 54 -13 3 -4 19 -12 35 -19 27 -11 28 -11
11 3 -17 13 -18 15 -2 21 10 4 25 -1 36 -11 12 -11 20 -13 20 -7 0 7 5 12 11
12 5 0 7 -4 4 -10 -3 -6 5 -10 19 -10 14 0 28 4 31 10 3 6 -1 7 -9 4 -11 -4
-16 0 -16 10 0 9 8 16 18 17 9 0 -1 6 -23 13 l-40 13 28 8 c29 8 32 30 4 30
-9 0 -24 8 -34 18 -16 16 -16 17 6 17 16 0 21 4 17 15 -3 8 0 15 7 15 7 0 19
5 27 10 12 8 11 13 -8 33 l-23 24 27 -5 c19 -3 25 -1 20 7 -4 6 -4 16 0 22 5
8 8 8 13 0 9 -15 90 -21 98 -8 4 6 -4 8 -23 4 -17 -3 -36 0 -46 7 -25 18 -22
24 7 18 16 -3 27 1 30 11 4 10 18 14 46 12 21 -1 39 2 39 6 0 5 9 9 21 9 11 0
45 11 75 25 30 14 58 24 62 24 4 -1 23 2 42 6 26 6 30 10 16 15 -14 5 -10 10
23 25 22 11 41 23 41 27 0 3 14 9 30 13 17 4 36 15 43 26 6 10 15 19 20 19 4
0 5 -4 2 -10 -10 -17 5 -11 28 10 12 12 32 23 45 27 17 4 22 11 19 24 -6 23
28 47 37 26 3 -7 7 -3 11 11 5 14 15 22 29 22 11 0 28 5 36 11 12 8 10 9 -7 4
-25 -7 -32 9 -8 19 8 3 15 12 15 20 0 8 16 18 38 24 24 7 29 10 15 11 -35 2
-18 27 35 53 44 21 46 22 22 29 l-25 7 27 1 c18 1 35 12 55 39 15 22 33 37 39
35 6 -2 17 4 25 14 9 11 10 14 2 9 -7 -4 -13 -2 -13 3 0 11 13 15 36 12 7 -1
14 5 18 14 4 11 -2 15 -22 16 -26 0 -26 1 8 14 19 7 31 14 26 14 -18 2 17 31
38 31 21 1 21 1 2 15 -20 15 -20 15 0 15 19 0 74 53 74 71 0 5 7 9 15 9 14 0
19 17 16 46 -1 6 11 9 30 6 22 -3 30 -1 25 7 -4 6 -11 9 -16 6 -5 -3 -11 -1
-15 5 -4 6 5 10 19 10 14 0 26 5 26 10 0 10 -14 14 -35 11 -5 -1 1 8 15 19 14
11 30 20 37 20 6 0 15 21 19 48 3 26 10 52 15 57 9 12 5 62 -5 72 -4 4 -16 -3
-28 -15 -19 -19 -20 -22 -5 -22 9 0 17 -5 17 -11 0 -6 -6 -9 -14 -6 -9 4 -17
-1 -19 -11 -4 -16 -5 -15 -6 1 0 9 -5 17 -11 17 -5 0 -9 -3 -7 -8 1 -4 -8 -17
-21 -30 -12 -12 -22 -17 -22 -12 0 25 -17 5 -35 -40 -19 -48 -34 -64 -36 -37
0 6 -4 2 -9 -10 -5 -13 -14 -23 -20 -23 -6 0 -8 -5 -4 -11 4 -8 -1 -9 -16 -4
-19 6 -22 4 -17 -9 6 -14 3 -16 -13 -11 -15 5 -23 0 -32 -19 -6 -14 -17 -26
-24 -26 -7 0 -15 -6 -17 -12 -3 -8 -6 -6 -6 4 -1 11 -6 15 -15 12 -8 -3 -12
-12 -9 -20 3 -9 0 -14 -8 -12 -8 2 -13 -4 -13 -14 1 -10 -2 -15 -7 -12 -5 3
-9 12 -9 20 0 8 -4 13 -10 9 -5 -3 -7 -12 -3 -20 3 -9 -1 -15 -11 -15 -9 0
-16 -8 -16 -17 -1 -16 -3 -15 -18 3 -14 16 -20 18 -29 9 -7 -7 -9 -16 -6 -19
4 -3 -1 -6 -11 -6 -9 0 -15 -4 -12 -9 4 -5 -3 -7 -14 -4 -11 3 -20 0 -20 -6 0
-6 5 -11 11 -11 6 0 4 -7 -5 -15 -21 -21 -26 -19 -27 13 0 18 -3 22 -7 12 -17
-37 -38 -60 -55 -60 -10 0 -15 -5 -12 -11 8 -11 -27 -49 -45 -49 -6 0 -9 -4
-6 -9 7 -11 -38 -53 -47 -44 -4 3 -13 -2 -20 -12 -13 -17 -14 -17 -21 0 -4 11
0 23 11 32 16 13 16 13 -4 3 -13 -6 -23 -15 -23 -21 0 -12 -30 -44 -30 -32 0
4 -7 0 -15 -11 -7 -10 -19 -15 -24 -11 -6 3 -14 -1 -17 -10 -4 -9 -13 -13 -24
-10 -9 3 -23 -1 -30 -10 -14 -17 -40 -20 -40 -5 0 14 -27 13 -32 -1 -5 -15
-148 -20 -148 -5 0 7 -23 12 -57 13 -34 1 -59 6 -61 13 -3 7 -13 -1 -23 -16
-10 -15 -15 -32 -12 -37 3 -6 1 -7 -4 -4 -6 4 -8 19 -5 34 l5 28 -22 -22 c-22
-23 -81 -32 -81 -13 0 6 -9 10 -20 10 -11 0 -20 -4 -20 -10 0 -5 -7 -10 -15
-10 -8 0 -15 6 -15 14 0 9 -12 14 -36 14 -20 0 -40 5 -44 12 -11 18 -59 40
-75 33 -8 -3 -15 -1 -15 5 0 6 -10 8 -22 5 -23 -5 -23 -5 -3 11 14 12 16 19 8
22 -7 3 -13 12 -13 19 0 7 6 16 13 19 6 3 3 4 -7 3 -13 -1 -22 6 -28 23 -7 22
-7 21 -5 -7 3 -25 1 -30 -9 -22 -8 7 -14 6 -18 -3 -3 -7 -4 -1 -2 15 4 30 3
31 -25 16 -17 -9 -20 -7 -17 8 2 12 -3 18 -15 17 -11 -1 -16 4 -15 15 2 11 -8
19 -29 26 -28 8 -33 14 -33 40 -1 28 -1 29 -15 11 -15 -20 -15 -20 -17 0 0 10
-1 24 -1 31 0 7 -12 15 -27 18 -16 3 -32 17 -39 31 -6 14 -7 23 -2 19 5 -3 12
-1 16 5 3 5 -1 10 -10 10 -27 0 -75 33 -75 51 0 9 -7 19 -15 23 -8 3 -15 12
-15 21 0 8 -6 15 -14 15 -19 0 -29 16 -36 60 -4 27 -11 36 -28 38 -13 2 -20 8
-16 14 4 6 2 8 -3 5 -6 -4 -22 -1 -35 6 -20 10 -23 17 -17 45 5 24 3 32 -7 32
-8 0 -14 -4 -14 -10 0 -15 -17 -12 -32 5 -33 40 -46 60 -78 120 -8 17 -28 47
-43 66 -15 20 -27 40 -27 45 0 6 -14 29 -31 53 -20 27 -33 56 -34 79 -4 60 -4
62 -20 62 -8 0 -15 7 -15 16 0 8 -4 13 -9 10 -5 -3 -12 1 -15 10 -3 8 -2 12 4
9 17 -10 12 3 -35 93 -25 47 -45 91 -45 97 -1 5 -9 28 -20 50 -11 22 -19 45
-20 52 0 6 -9 18 -21 26 -14 11 -20 24 -18 44 2 15 0 33 -4 40 -4 7 4 22 20
37 20 19 23 26 12 26 -12 0 -15 7 -11 25 3 16 0 25 -9 25 -10 0 -10 3 -1 12
17 17 15 32 -8 58 -11 13 -20 33 -20 45 0 12 -9 34 -20 48 -11 14 -20 30 -20
36 0 6 -4 11 -9 11 -5 0 -15 17 -21 38 -7 20 -23 54 -36 74 -13 21 -24 51 -24
68 0 21 -4 29 -12 24 -8 -5 -9 0 -6 14 4 12 3 22 -2 22 -8 0 -20 73 -20 127 0
17 -6 38 -15 46 -18 19 -19 34 -3 39 8 3 7 8 -3 18 -20 18 -13 76 7 59 11 -9
14 -8 15 7 0 11 1 39 2 64 1 25 7 50 14 55 6 6 13 24 15 40 1 17 7 34 13 38 5
5 0 6 -12 2 -30 -8 -40 13 -11 24 13 6 17 10 10 10 -7 1 -10 6 -7 11 4 6 10 8
15 5 11 -7 21 21 14 40 -4 8 -1 15 6 15 6 0 8 5 5 10 -5 8 -11 7 -21 -1 -8 -6
-18 -8 -22 -4 -4 4 -1 10 6 12 9 4 10 8 2 18 -6 7 -9 19 -8 26 5 22 -46 23
-65 1z m83 -82 c0 -5 -5 -10 -11 -10 -5 0 -7 5 -4 10 3 6 8 10 11 10 2 0 4 -4
4 -10z m-93 -342 c-3 -8 -6 -5 -6 6 -1 11 2 17 5 13 3 -3 4 -12 1 -19z m-87
-22 c0 -3 -4 -8 -10 -11 -5 -3 -10 -1 -10 4 0 6 5 11 10 11 6 0 10 -2 10 -4z
m-33 -718 c-3 -8 -6 -5 -6 6 -1 11 2 17 5 13 3 -3 4 -12 1 -19z m67 -133 c3
-8 1 -15 -4 -15 -6 0 -10 7 -10 15 0 8 2 15 4 15 2 0 6 -7 10 -15z m-27 -27
c-3 -8 -6 -5 -6 6 -1 11 2 17 5 13 3 -3 4 -12 1 -19z m319 -176 c-10 -10 -33
20 -40 53 -7 30 -7 29 19 -8 15 -21 24 -41 21 -45z m34 10 c0 -7 -4 -10 -10
-7 -5 3 -10 16 -10 28 0 18 2 19 10 7 5 -8 10 -21 10 -28z m-20 -51 c7 -11 17
-18 22 -15 10 6 11 -30 1 -39 -6 -6 -53 54 -53 67 0 13 16 5 30 -13z m90 -57
c0 -3 -7 -1 -15 6 -8 7 -15 17 -15 22 0 5 7 3 15 -6 8 -8 15 -18 15 -22z m-21
-44 c25 -48 26 -57 6 -57 -11 0 -12 4 -4 14 11 12 5 17 -13 14 -5 0 -8 8 -8
18 0 11 -5 23 -10 26 -9 6 -5 25 5 25 1 0 12 -18 24 -40z m42 13 c13 -16 12
-17 -3 -4 -17 13 -22 21 -14 21 2 0 10 -8 17 -17z m49 -64 c0 -6 -4 -7 -10 -4
-5 3 -10 11 -10 16 0 6 5 7 10 4 6 -3 10 -11 10 -16z m35 -9 c3 -5 -1 -10 -10
-10 -9 0 -13 5 -10 10 3 6 8 10 10 10 2 0 7 -4 10 -10z m-85 -26 c0 -17 -22
-14 -28 4 -2 7 3 12 12 12 9 0 16 -7 16 -16z m73 -34 c3 -11 1 -20 -4 -20 -5
0 -9 2 -9 4 0 2 -3 11 -6 20 -3 9 -2 16 4 16 5 0 12 -9 15 -20z m32 -50 c3 -5
1 -10 -4 -10 -6 0 -11 5 -11 10 0 6 2 10 4 10 3 0 8 -4 11 -10z m-95 -330 c13
-8 13 -10 -2 -10 -9 0 -20 5 -23 10 -8 13 5 13 25 0z m427 -66 c-3 -3 -12 -4
-19 -1 -8 3 -5 6 6 6 11 1 17 -2 13 -5z m-17 -28 c0 -3 -4 -8 -10 -11 -5 -3
-10 -1 -10 4 0 6 5 11 10 11 6 0 10 -2 10 -4z m27 -18 c-3 -8 -6 -5 -6 6 -1
11 2 17 5 13 3 -3 4 -12 1 -19z m2133 8 c0 -2 -7 -6 -15 -10 -8 -3 -15 -1 -15
4 0 6 7 10 15 10 8 0 15 -2 15 -4z m-100 -16 c0 -5 -2 -10 -4 -10 -3 0 -8 5
-11 10 -3 6 -1 10 4 10 6 0 11 -4 11 -10z m-2563 -162 c-3 -8 -6 -5 -6 6 -1
11 2 17 5 13 3 -3 4 -12 1 -19z m1406 -385 c-7 -2 -19 -2 -25 0 -7 3 -2 5 12
5 14 0 19 -2 13 -5z m37 3 c0 -3 -4 -8 -10 -11 -5 -3 -10 -1 -10 4 0 6 5 11
10 11 6 0 10 -2 10 -4z m30 -6 c0 -5 -2 -10 -4 -10 -3 0 -8 5 -11 10 -3 6 -1
10 4 10 6 0 11 -4 11 -10z m2210 -260 l25 -21 -30 15 c-34 18 -75 51 -75 61 0
6 34 -17 80 -55z m-2130 -140 c-8 -5 -19 -10 -25 -10 -5 0 -3 5 5 10 8 5 20
10 25 10 6 0 3 -5 -5 -10z m-1100 -260 c0 -5 -2 -10 -4 -10 -3 0 -8 5 -11 10
-3 6 -1 10 4 10 6 0 11 -4 11 -10z m104 -5 c-4 -8 -8 -15 -10 -15 -2 0 -4 7
-4 15 0 8 4 15 10 15 5 0 7 -7 4 -15z m793 -41 c-3 -3 -12 -4 -19 -1 -8 3 -5
6 6 6 11 1 17 -2 13 -5z m-1403 -320 c3 -8 2 -12 -4 -9 -6 3 -10 10 -10 16 0
14 7 11 14 -7z m41 -34 c3 -5 1 -10 -4 -10 -6 0 -11 5 -11 10 0 6 2 10 4 10 3
0 8 -4 11 -10z m16 -43 c-10 -9 -11 -8 -5 6 3 10 9 15 12 12 3 -3 0 -11 -7
-18z m359 -57 c0 -23 -25 -27 -33 -6 -4 9 1 17 11 19 9 3 18 5 20 6 1 0 2 -8
2 -19z"/>
<path d="M4651 5454 c0 -11 3 -14 6 -6 3 7 2 16 -1 19 -3 4 -6 -2 -5 -13z"/>
<path d="M4000 4950 c-17 -10 -23 -15 -134 -103 -44 -34 -103 -79 -130 -101
-28 -21 -60 -48 -72 -60 -11 -11 -34 -33 -51 -47 -17 -14 -36 -35 -42 -47 -6
-12 -17 -19 -24 -16 -10 4 -12 -3 -9 -26 l4 -31 30 33 c63 69 133 138 140 138
5 0 16 8 26 18 96 91 193 173 244 209 34 24 55 43 47 43 -8 0 -21 -5 -29 -10z"/>
<path d="M5590 4921 c0 -6 32 -43 71 -83 39 -40 82 -89 97 -108 35 -44 74 -79
90 -80 6 0 12 -7 12 -15 0 -8 6 -15 14 -15 8 0 18 -5 22 -12 5 -8 1 -9 -12 -5
-16 6 -16 5 3 -10 19 -17 59 -110 50 -120 -6 -5 -70 29 -79 42 -5 6 -11 6 -19
-2 -8 -8 -20 -8 -41 -1 -22 8 -33 7 -46 -5 -32 -28 -62 -38 -214 -71 -84 -19
-178 -46 -208 -60 l-55 -26 80 6 c44 3 94 9 111 14 17 4 37 4 44 0 7 -5 21 -7
31 -5 15 3 16 0 10 -18 -5 -12 -18 -23 -30 -25 -15 -2 -21 -11 -21 -28 0 -13
5 -24 10 -24 6 0 10 5 10 10 0 13 50 70 62 70 12 0 10 -68 -2 -91 -6 -10 -8
-19 -5 -19 11 0 91 55 143 99 65 54 147 78 181 54 24 -16 51 -74 51 -109 0
-13 5 -24 10 -24 10 0 14 13 11 43 -1 9 3 17 9 17 7 0 9 8 5 20 -5 15 -3 18 8
14 10 -4 14 3 13 23 0 18 4 27 13 25 7 -1 9 2 6 8 -4 6 1 17 11 24 16 12 16
14 -9 31 -32 21 -39 41 -28 80 7 23 9 25 10 9 1 -27 61 -71 61 -45 0 5 -9 11
-20 14 -12 3 -20 14 -20 26 0 33 -61 100 -185 203 -33 27 -83 71 -111 96 -73
66 -83 74 -93 67 -5 -3 -12 -1 -16 5 -8 13 -35 13 -35 1z"/>
<path d="M3950 4737 c0 -7 3 -17 7 -21 8 -7 9 -12 11 -54 2 -18 7 -23 24 -20
13 2 24 11 26 23 3 16 1 18 -9 8 -21 -20 -26 -16 -33 26 -6 38 -26 67 -26 38z"/>
<path d="M4069 4720 c-1 -5 -2 -16 -3 -22 -1 -7 -5 -16 -9 -19 -5 -3 0 -9 11
-11 17 -5 20 -1 19 28 -1 31 -15 49 -18 24z"/>
<path d="M3785 4670 c-3 -5 -1 -10 4 -10 6 0 11 5 11 10 0 6 -2 10 -4 10 -3 0
-8 -4 -11 -10z"/>
<path d="M3936 4647 c3 -10 9 -15 12 -12 3 3 0 11 -7 18 -10 9 -11 8 -5 -6z"/>
<path d="M3777 4633 c-14 -13 -6 -33 13 -33 34 0 22 -24 -23 -45 -35 -17 -78
-68 -65 -80 1 -2 23 -5 48 -7 31 -2 45 -8 45 -18 0 -14 90 -94 198 -177 23
-18 54 -41 69 -52 14 -12 36 -21 47 -21 12 0 21 -6 21 -12 1 -16 123 -100 148
-102 19 -1 19 2 -2 59 -18 47 -20 117 -5 132 8 8 8 13 0 17 -15 9 -14 49 1 64
17 17 79 15 106 -4 12 -8 22 -10 22 -5 0 14 47 14 102 1 24 -5 81 -16 128 -24
47 -7 100 -18 118 -24 17 -6 32 -7 32 -3 0 7 -27 17 -98 37 -7 2 -10 9 -6 15
4 7 0 9 -12 6 -26 -8 -143 16 -143 28 0 6 -12 11 -27 13 -15 2 -38 11 -51 19
-12 8 -23 12 -23 9 0 -4 -10 -2 -21 5 -12 6 -40 13 -63 16 -22 2 -44 10 -48
16 -6 9 -10 9 -16 -1 -7 -10 -15 -10 -36 -2 -15 5 -41 10 -57 10 -17 0 -32 6
-35 15 -4 8 -9 13 -13 10 -4 -2 -20 3 -36 11 -16 8 -35 12 -42 9 -9 -3 -11 0
-7 6 4 8 -1 9 -16 4 -15 -5 -20 -4 -16 4 4 6 -5 13 -21 17 -39 10 -72 36 -73
57 0 17 -20 25 -20 8 0 -17 -34 -22 -46 -7 -6 9 -18 16 -27 16 -9 0 -19 5 -22
10 -7 12 -19 13 -28 3z m163 -73 c0 -5 -7 -7 -15 -4 -8 4 -15 8 -15 10 0 2 7
4 15 4 8 0 15 -4 15 -10z m280 -412 c0 -20 -2 -21 -15 -7 -9 8 -18 29 -21 45
l-5 29 20 -22 c12 -12 21 -32 21 -45z"/>
<path d="M3860 4610 c0 -5 5 -10 10 -10 6 0 10 5 10 10 0 6 -4 10 -10 10 -5 0
-10 -4 -10 -10z"/>
<path d="M6280 4510 c0 -29 3 -51 6 -48 7 8 8 88 0 95 -3 4 -6 -18 -6 -47z"/>
<path d="M5880 4534 c0 -8 5 -12 10 -9 6 4 8 11 5 16 -9 14 -15 11 -15 -7z"/>
<path d="M5092 4350 c10 -6 31 -7 55 -1 38 9 38 9 -17 10 -40 0 -50 -2 -38 -9z"/>
<path d="M4988 4343 c7 -3 16 -2 19 1 4 3 -2 6 -13 5 -11 0 -14 -3 -6 -6z"/>
<path d="M5417 4253 c-4 -3 -7 -11 -7 -17 0 -6 5 -5 12 2 6 6 9 14 7 17 -3 3
-9 2 -12 -2z"/>
<path d="M5296 4201 c-4 -7 -5 -15 -2 -18 9 -9 19 4 14 18 -4 11 -6 11 -12 0z"/>
<path d="M4392 4187 c-10 -12 -11 -24 -4 -44 l10 -28 7 27 c4 14 5 34 3 44 -3
16 -4 16 -16 1z"/>
<path d="M4065 4140 c-3 -5 -1 -10 4 -10 6 0 11 5 11 10 0 6 -2 10 -4 10 -3 0
-8 -4 -11 -10z"/>
<path d="M4115 4140 c-4 -6 -10 -8 -15 -5 -4 3 -11 -2 -14 -11 -4 -12 -1 -14
14 -9 21 7 25 -5 11 -39 -6 -17 -9 -16 -39 9 -18 15 -32 23 -32 18 0 -6 3 -13
8 -17 10 -10 10 -56 0 -50 -19 12 -6 -13 15 -29 15 -10 23 -27 22 -44 0 -23
-5 -29 -30 -33 -20 -4 -26 -8 -17 -14 7 -4 10 -16 7 -26 -6 -19 10 -55 31 -75
7 -5 15 -26 18 -45 9 -49 40 -83 76 -83 20 0 32 -8 41 -24 7 -12 16 -23 21
-23 5 0 6 -9 3 -21 -6 -18 -4 -20 14 -14 15 5 21 2 21 -9 0 -19 46 -22 52 -4
3 9 12 9 38 0 45 -16 60 -15 60 4 0 14 -3 14 -15 4 -9 -7 -19 -10 -22 -6 -4 4
-1 11 7 17 12 7 13 11 2 18 -8 4 -13 12 -13 17 1 5 -2 9 -6 9 -5 1 -25 16 -45
35 -37 33 -50 72 -28 85 8 5 7 12 -2 23 -11 14 -10 15 6 9 10 -4 25 -2 34 5
13 11 15 10 9 -6 -6 -16 -5 -17 7 -7 8 7 19 10 25 7 5 -3 11 1 15 9 3 8 12 12
21 9 18 -7 19 -1 3 43 -7 19 -17 32 -25 29 -7 -3 -13 7 -15 27 -4 28 -5 30
-14 12 -15 -34 -37 -30 -32 5 4 28 3 29 -13 14 -11 -10 -19 -12 -24 -5 -3 6
-1 11 4 11 27 0 6 31 -40 60 -28 19 -48 38 -45 45 3 8 -2 11 -15 8 -10 -3 -19
-10 -19 -17 0 -6 -5 -4 -10 4 -5 8 -7 23 -4 33 5 16 2 18 -15 12 -19 -6 -21
-4 -15 19 6 26 -8 37 -21 16z m-1 -232 c-4 -6 -10 -5 -15 3 -5 8 -9 10 -9 5 0
-5 7 -18 17 -28 16 -17 14 -19 -19 -22 -14 -1 -19 45 -5 62 12 15 41 -4 31
-20z m86 -48 c0 -5 -8 -10 -17 -10 -15 0 -16 2 -3 10 19 12 20 12 20 0z m156
-17 c-10 -10 -19 5 -10 18 6 11 8 11 12 0 2 -7 1 -15 -2 -18z m-196 -53 c0 -5
-4 -10 -10 -10 -5 0 -10 5 -10 10 0 6 5 10 10 10 6 0 10 -4 10 -10z"/>
<path d="M4747 4123 c-8 -17 -6 -63 3 -63 6 0 10 -15 10 -32 0 -63 22 -72 127
-52 43 9 101 19 129 24 69 11 94 19 94 32 0 6 -9 7 -22 3 -31 -11 -89 -11
-110 -1 -14 6 -18 4 -18 -12 0 -18 -9 -21 -67 -27 -130 -14 -118 -20 -121 63
-3 63 -12 89 -25 65z"/>
<path d="M5270 4094 c-15 -38 -12 -45 13 -32 12 7 24 14 25 15 8 4 -10 43 -19
43 -5 0 -14 -12 -19 -26z"/>
<path d="M4382 4086 c-11 -25 -10 -31 5 -48 23 -26 78 -48 117 -49 17 0 74 -2
126 -5 52 -3 92 -2 87 2 -4 4 -41 7 -82 6 -61 -2 -76 1 -84 15 -8 14 -12 15
-25 4 -19 -16 -68 -9 -102 14 -16 10 -24 27 -26 52 l-3 38 -13 -29z"/>
<path d="M5126 4101 c-14 -21 4 -71 25 -71 24 0 24 27 0 59 -12 16 -20 20 -25
12z"/>
<path d="M4025 4060 c3 -5 8 -10 11 -10 2 0 4 5 4 10 0 6 -5 10 -11 10 -5 0
-7 -4 -4 -10z"/>
<path d="M4440 3831 c0 -11 5 -23 10 -26 6 -3 10 3 10 14 0 11 -4 23 -10 26
-5 3 -10 -3 -10 -14z"/>
<path d="M4181 3664 c0 -11 3 -14 6 -6 3 7 2 16 -1 19 -3 4 -6 -2 -5 -13z"/>
<path d="M6305 3610 c-3 -5 -1 -10 4 -10 6 0 11 5 11 10 0 6 -2 10 -4 10 -3 0
-8 -4 -11 -10z"/>
<path d="M3495 3590 c-3 -5 -1 -10 4 -10 6 0 11 5 11 10 0 6 -2 10 -4 10 -3 0
-8 -4 -11 -10z"/>
<path d="M6285 3580 c-3 -5 -1 -10 4 -10 6 0 11 5 11 10 0 6 -2 10 -4 10 -3 0
-8 -4 -11 -10z"/>
<path d="M6190 3570 c0 -5 5 -10 11 -10 5 0 7 5 4 10 -3 6 -8 10 -11 10 -2 0
-4 -4 -4 -10z"/>
<path d="M6199 3517 c6 -8 8 -17 4 -20 -3 -4 -2 -7 4 -7 9 0 23 22 23 36 0 2
-10 4 -21 4 -17 0 -19 -3 -10 -13z"/>
<path d="M4140 3360 c0 -5 5 -10 11 -10 5 0 7 5 4 10 -3 6 -8 10 -11 10 -2 0
-4 -4 -4 -10z"/>
<path d="M5711 3260 c0 -8 4 -22 9 -30 7 -12 12 -12 22 -2 9 9 9 12 -4 12 -9
0 -19 8 -21 18 -3 12 -5 13 -6 2z"/>
<path d="M4625 2910 c-3 -5 1 -10 9 -10 9 0 16 5 16 10 0 6 -4 10 -9 10 -6 0
-13 -4 -16 -10z"/>
<path d="M5211 2904 c0 -11 3 -14 6 -6 3 7 2 16 -1 19 -3 4 -6 -2 -5 -13z"/>
<path d="M4660 2900 c0 -5 7 -10 16 -10 8 0 12 5 9 10 -3 6 -10 10 -16 10 -5
0 -9 -4 -9 -10z"/>
<path d="M4770 2895 c5 -7 7 -15 3 -18 -3 -4 7 -7 23 -7 22 0 26 3 14 10 -12
8 -12 12 -2 18 8 6 2 9 -17 9 -22 0 -28 -4 -21 -12z"/>
<path d="M5715 2840 c-13 -6 -15 -9 -5 -9 8 0 22 4 30 9 18 12 2 12 -25 0z"/>
<path d="M5368 2543 c7 -3 16 -2 19 1 4 3 -2 6 -13 5 -11 0 -14 -3 -6 -6z"/>
<path d="M5295 2520 c-3 -5 1 -10 9 -10 8 0 18 5 21 10 3 6 -1 10 -9 10 -8 0
-18 -4 -21 -10z"/>
<path d="M5125 2430 c-8 -13 15 -13 35 0 12 8 11 10 -7 10 -12 0 -25 -4 -28
-10z"/>
<path d="M5078 2413 c6 -2 18 -2 25 0 6 3 1 5 -13 5 -14 0 -19 -2 -12 -5z"/>
<path d="M5208 2403 c7 -3 16 -2 19 1 4 3 -2 6 -13 5 -11 0 -14 -3 -6 -6z"/>
<path d="M5010 2390 c0 -5 7 -10 16 -10 8 0 12 5 9 10 -3 6 -10 10 -16 10 -5
0 -9 -4 -9 -10z"/>
<path d="M5150 2390 c0 -5 5 -10 10 -10 6 0 10 5 10 10 0 6 -4 10 -10 10 -5 0
-10 -4 -10 -10z"/>
<path d="M5073 2383 c9 -2 23 -2 30 0 6 3 -1 5 -18 5 -16 0 -22 -2 -12 -5z"/>
<path d="M4502 2169 c2 -7 10 -15 17 -17 8 -3 12 1 9 9 -2 7 -10 15 -17 17 -8
3 -12 -1 -9 -9z"/>
<path d="M4718 2083 c7 -3 16 -2 19 1 4 3 -2 6 -13 5 -11 0 -14 -3 -6 -6z"/>
<path d="M3690 1630 c0 -5 5 -10 10 -10 6 0 10 5 10 10 0 6 -4 10 -10 10 -5 0
-10 -4 -10 -10z"/>
<path d="M3805 1550 c3 -5 8 -10 11 -10 2 0 4 5 4 10 0 6 -5 10 -11 10 -5 0
-7 -4 -4 -10z"/>
<path d="M4991 1334 c0 -11 3 -14 6 -6 3 7 2 16 -1 19 -3 4 -6 -2 -5 -13z"/>
<path d="M4739 1262 c6 -12 16 -24 22 -28 8 -4 8 -1 0 14 -6 12 -16 24 -22 28
-8 4 -8 1 0 -14z"/>
</g>
</svg>
